<svg width="24" height="24" viewBox="0 0 24 24" fill="none" xmlns="http://www.w3.org/2000/svg">
<path d="M12 24C18.6274 24 24 18.6274 24 12C24 5.37258 18.6274 0 12 0C5.37258 0 0 5.37258 0 12C0 18.6274 5.37258 24 12 24Z" fill="url(#paint0_linear)"/>
<path d="M17.2516 16.7817L13.1938 6.97144C12.965 6.46422 12.6248 6.2168 12.1763 6.2168H11.8175C11.3691 6.2168 11.0289 6.46422 10.8 6.97144L9.03403 11.2457H7.69795C7.29898 11.2488 6.97423 11.5704 6.97114 11.9725V11.9817C6.97423 12.3807 7.29898 12.7055 7.69795 12.7085H8.41547L6.7299 16.7817C6.69898 16.8714 6.68042 16.9642 6.68042 17.0601C6.68042 17.289 6.75155 17.4683 6.87836 17.6075C7.00516 17.7467 7.18764 17.8147 7.4165 17.8147C7.56805 17.8116 7.71341 17.7653 7.83403 17.6756C7.96392 17.5859 8.05362 17.456 8.12475 17.3075L9.98042 12.7055H11.267C11.666 12.7024 11.9907 12.3807 11.9938 11.9787V11.9601C11.9907 11.5611 11.666 11.2364 11.267 11.2333H10.5804L11.9969 7.70443L15.8567 17.3044C15.9278 17.4529 16.0175 17.5828 16.1474 17.6725C16.268 17.7622 16.4165 17.8086 16.565 17.8116C16.7938 17.8116 16.9732 17.7436 17.1031 17.6044C17.233 17.4653 17.301 17.2859 17.301 17.057C17.3041 16.9642 17.2887 16.8683 17.2516 16.7817Z" fill="white"/>
<path d="M23.5 12C23.5 18.3513 18.3513 23.5 12 23.5C5.64873 23.5 0.5 18.3513 0.5 12C0.5 5.64873 5.64873 0.5 12 0.5C18.3513 0.5 23.5 5.64873 23.5 12Z" stroke="white" stroke-opacity="0.3"/>
<defs>
<linearGradient id="paint0_linear" x1="20.947" y1="4.47174" x2="3.09103" y2="19.4957" gradientUnits="userSpaceOnUse">
<stop stop-color="#B6509E"/>
<stop offset="1" stop-color="#2EBAC6"/>
</linearGradient>
</defs>
</svg>
