<svg width="24" height="24" viewBox="0 0 24 24" fill="none" xmlns="http://www.w3.org/2000/svg">
<path d="M19.8745 5.58174L13.5006 1.90022C13.044 1.63799 12.5266 1.5 12 1.5C11.4735 1.5 10.9561 1.63799 10.4995 1.90022L8.25725 3.19572C8.81528 3.37834 9.33219 3.66839 9.77883 4.04953L11.2498 3.19996C11.478 3.06843 11.7367 2.99919 12 2.99919C12.2634 2.99919 12.5221 3.06843 12.7503 3.19996L14.9461 4.46799L11.9049 7.22173L12.6742 8.55106L16.3113 5.25628L19.1243 6.88148C19.3521 7.01298 19.5414 7.20211 19.6731 7.42987C19.8047 7.65763 19.8742 7.91601 19.8745 8.1791V11.0153L15.0772 12.7165L15.8401 14.0374L19.8745 12.6066V15.5421C19.874 15.8044 19.805 16.062 19.6741 16.2893C19.5432 16.5165 19.3551 16.7056 19.1285 16.8376C19.1263 16.8376 19.1263 16.8397 19.1243 16.8397C19.1243 16.8397 17.8372 17.5837 17.8246 17.59C17.4824 17.7734 17.0823 17.8166 16.7089 17.7105C16.3354 17.6044 16.0178 17.3574 15.8231 17.0215L9.44283 5.96849C9.0439 5.28243 8.38977 4.78205 7.62322 4.57655C6.85668 4.37105 6.03996 4.47714 5.35135 4.87164L4.12976 5.57752L4.12346 5.58174C3.66856 5.84604 3.29084 6.22492 3.02794 6.68063C2.76503 7.13634 2.6261 7.65299 2.625 8.1791V15.5421C2.6261 16.0682 2.76502 16.5849 3.02793 17.0406C3.29084 17.4963 3.66856 17.8752 4.12346 18.1395L10.4995 21.821C10.9563 22.0827 11.4736 22.2204 12.0001 22.2204C12.5265 22.2204 13.0438 22.0827 13.5006 21.821L15.7196 20.5382C15.1612 20.3565 14.6441 20.0663 14.198 19.6844L12.7503 20.5213C12.5219 20.6521 12.2633 20.721 12.0001 20.721C11.7369 20.721 11.4782 20.6521 11.2499 20.5213L6.04244 17.5139L11.5288 15.5675L10.7659 14.2466L5.14632 16.2417C5.07312 16.2671 4.99336 16.2666 4.92055 16.24C4.84775 16.2134 4.78637 16.1624 4.74682 16.0958C4.70727 16.0291 4.692 15.9508 4.70357 15.8742C4.71514 15.7976 4.75285 15.7273 4.81032 15.6753L9.26112 11.6429L8.49398 10.3136L4.12347 14.272V8.1791C4.12374 7.91601 4.1932 7.65763 4.32488 7.42987C4.45655 7.20211 4.64582 7.01298 4.87367 6.88147L4.88008 6.87724C4.88008 6.87724 6.12055 6.16082 6.12901 6.15658C6.47164 5.96865 6.8742 5.92225 7.2506 6.02731C7.627 6.13236 7.94734 6.38053 8.14312 6.71874L14.5256 17.7718C14.9247 18.457 15.5786 18.9567 16.3447 19.1618C17.1107 19.3669 17.9268 19.2607 18.6149 18.8665L19.8745 18.1395C19.8766 18.1395 19.8766 18.1374 19.8787 18.1374C20.3331 17.8732 20.7103 17.4946 20.9729 17.0392C21.2354 16.5839 21.374 16.0677 21.375 15.5421V8.1791C21.3739 7.65274 21.2348 7.13586 20.9715 6.68009C20.7082 6.22432 20.3299 5.84559 19.8745 5.58174Z" fill="#7B3FE4"/>
</svg>
