<svg width="20" height="20" viewBox="0 0 20 20" fill="none" xmlns="http://www.w3.org/2000/svg">
<path fill-rule="evenodd" clip-rule="evenodd" d="M10.9202 3.48092L12.4431 6.52321C12.5923 6.82188 12.8804 7.02898 13.2145 7.0769L16.6211 7.56726C17.4628 7.68878 17.7977 8.70887 17.1886 9.29337L14.7252 11.6604C14.4831 11.8932 14.3729 12.2278 14.4301 12.5564L15.0115 15.8983C15.1547 16.7249 14.2748 17.3557 13.5225 16.9646L10.4777 15.3857C10.1792 15.2308 9.82168 15.2308 9.52232 15.3857L6.4775 16.9646C5.72519 17.3557 4.84533 16.7249 4.98937 15.8983L5.56987 12.5564C5.62714 12.2278 5.51694 11.8932 5.27485 11.6604L2.8114 9.29337C2.20226 8.70887 2.5372 7.68878 3.37889 7.56726L6.78554 7.0769C7.11961 7.02898 7.40856 6.82188 7.55781 6.52321L9.07979 3.48092C9.45638 2.72869 10.5436 2.72869 10.9202 3.48092Z" fill="#F8943A" stroke="#F8943A" stroke-width="1.5" stroke-linecap="round" stroke-linejoin="round"/>
</svg>
