<svg width="16" height="16" viewBox="0 0 16 16" fill="none" xmlns="http://www.w3.org/2000/svg">
<path d="M11.5646 5.6709C11.3063 5.51847 10.9705 5.51847 10.6863 5.6709L8.67159 6.83948L7.30258 7.60161L5.28782 8.7702C5.02952 8.92262 4.69373 8.92262 4.40959 8.7702L2.80812 7.85565C2.54982 7.70322 2.369 7.42378 2.369 7.11893V5.31524C2.369 5.01039 2.52399 4.73094 2.80812 4.57852L4.38376 3.68937C4.64207 3.53695 4.97786 3.53695 5.26199 3.68937L6.83764 4.57852C7.09594 4.73094 7.27675 5.01039 7.27675 5.31524V6.48383L8.64576 5.6963V4.52771C8.64576 4.22286 8.49077 3.94341 8.20664 3.79099L5.28782 2.11432C5.02952 1.96189 4.69373 1.96189 4.40959 2.11432L1.43911 3.79099C1.15498 3.94341 1 4.22286 1 4.52771V7.90646C1 8.21131 1.15498 8.49075 1.43911 8.64318L4.40959 10.3198C4.6679 10.4723 5.00369 10.4723 5.28782 10.3198L7.30258 9.17666L8.67159 8.38913L10.6863 7.24595C10.9446 7.09352 11.2804 7.09352 11.5646 7.24595L13.1402 8.13509C13.3985 8.28752 13.5793 8.56696 13.5793 8.87181V10.6755C13.5793 10.9804 13.4244 11.2598 13.1402 11.4122L11.5646 12.3268C11.3063 12.4792 10.9705 12.4792 10.6863 12.3268L9.1107 11.4376C8.8524 11.2852 8.67159 11.0058 8.67159 10.7009V9.53232L7.30258 10.3198V11.4884C7.30258 11.7933 7.45756 12.0727 7.7417 12.2252L10.7122 13.9018C10.9705 14.0543 11.3063 14.0543 11.5904 13.9018L14.5609 12.2252C14.8192 12.0727 15 11.7933 15 11.4884V8.10969C15 7.80484 14.845 7.52539 14.5609 7.37297L11.5646 5.6709Z" fill="#8247E5"/>
</svg>
