<svg width="24" height="24" viewBox="0 0 24 24" fill="none" xmlns="http://www.w3.org/2000/svg">
<path d="M13.0141 3.49294L8 6L9.8252 7.2168C10.4069 7.60457 10.6977 7.79845 11.0298 7.88278C11.3619 7.9671 11.7099 7.93546 12.4061 7.87217H12.4061L15.5888 7.58284H15.5888C16.0424 7.5416 16.2693 7.52097 16.484 7.45089C16.6987 7.38081 16.894 7.26362 17.2846 7.02924L19 6L18.003 4.67064C17.0454 3.3938 16.5665 2.75538 15.861 2.58882C15.1555 2.42227 14.4417 2.77916 13.0141 3.49294Z" fill="#DDDFE0"/>
<path d="M2 13.5C2 10.2125 2 8.56878 2.90796 7.46243C3.07418 7.25989 3.25989 7.07418 3.46243 6.90796C4.56878 6 6.21252 6 9.5 6H18C19.8856 6 20.8284 6 21.4142 6.58579C22 7.17157 22 8.11438 22 10V17C22 18.8856 22 19.8284 21.4142 20.4142C20.8284 21 19.8856 21 18 21H9.5C6.21252 21 4.56878 21 3.46243 20.092C3.25989 19.9258 3.07418 19.7401 2.90796 19.5376C2 18.4312 2 16.7875 2 13.5Z" fill="#C0C3C9"/>
<path d="M16 13.5C16 13.0353 16 12.803 16.0384 12.6098C16.1962 11.8164 16.8164 11.1962 17.6098 11.0384C17.803 11 18.0353 11 18.5 11H22V16H18.5C18.0353 16 17.803 16 17.6098 15.9616C16.8164 15.8038 16.1962 15.1836 16.0384 14.3902C16 14.197 16 13.9647 16 13.5Z" fill="#52555D"/>
<line x1="6.75" y1="10.25" x2="10.25" y2="10.25" stroke="white" stroke-width="1.5" stroke-linecap="round" stroke-linejoin="round"/>
</svg>
